<svg width="40" height="42" viewBox="0 0 40 42" fill="none" xmlns="http://www.w3.org/2000/svg">
<path d="M25.5556 20.1534C24.7778 20.1534 24.12 19.8791 23.5822 19.3306C23.0444 18.7821 22.7763 18.1119 22.7778 17.3201C22.7778 16.5267 23.0467 15.8558 23.5844 15.3073C24.1222 14.7587 24.7793 14.4852 25.5556 14.4867C26.3333 14.4867 26.9911 14.761 27.5289 15.3095C28.0667 15.8581 28.3348 16.5282 28.3333 17.3201C28.3333 18.1134 28.0644 18.7843 27.5267 19.3329C26.9889 19.8814 26.3319 20.1549 25.5556 20.1534ZM14.4444 20.1534C13.6667 20.1534 13.0089 19.8791 12.4711 19.3306C11.9333 18.7821 11.6652 18.1119 11.6667 17.3201C11.6667 16.5267 11.9356 15.8558 12.4733 15.3073C13.0111 14.7587 13.6681 14.4852 14.4444 14.4867C15.2222 14.4867 15.88 14.761 16.4178 15.3095C16.9556 15.8581 17.2237 16.5282 17.2222 17.3201C17.2222 18.1134 16.9533 18.7843 16.4156 19.3329C15.8778 19.8814 15.2207 20.1549 14.4444 20.1534ZM20 32.0534C17.7778 32.0534 15.7681 31.4301 13.9711 30.1834C12.1741 28.9367 10.8504 27.2934 10 25.2534H30C29.1481 27.2934 27.8244 28.9367 26.0289 30.1834C24.2333 31.4301 22.2237 32.0534 20 32.0534ZM20 41.1201C17.2222 41.1201 14.6207 40.5821 12.1956 39.5062C9.77037 38.4303 7.65926 36.9758 5.86222 35.1429C4.06519 33.3099 2.63926 31.1566 1.58444 28.6829C0.52963 26.2092 0.00148148 23.5549 0 20.7201C0 17.8867 0.528148 15.2332 1.58444 12.7595C2.64074 10.2858 4.06593 8.13251 5.86 6.29953C7.65704 4.46656 9.76815 3.01211 12.1933 1.9362C14.6185 0.860291 17.2207 0.321579 20 0.320068C22.7778 0.320068 25.38 0.85878 27.8067 1.9362C30.2333 3.01362 32.3444 4.46731 34.14 6.29727C35.9356 8.13025 37.3615 10.2836 38.4178 12.7573C39.4741 15.231 40.0015 17.8852 40 20.7201C40 23.5534 39.4726 26.2077 38.4178 28.6829C37.363 31.1581 35.937 33.3114 34.14 35.1429C32.343 36.9743 30.2318 38.4288 27.8067 39.5062C25.3815 40.5836 22.7793 41.1216 20 41.1201ZM20 36.5867C24.2963 36.5867 27.963 35.0378 31 31.9401C34.037 28.8423 35.5556 25.1023 35.5556 20.7201C35.5556 16.3378 34.037 12.5978 31 9.50007C27.963 6.40229 24.2963 4.8534 20 4.8534H19.3333C19.1111 4.8534 18.8889 4.89118 18.6667 4.96673C18.4444 5.1934 18.2963 5.43896 18.2222 5.7034C18.1481 5.96785 18.1111 6.25118 18.1111 6.5534C18.1111 7.34673 18.3793 8.01767 18.9156 8.5662C19.4519 9.11473 20.1096 9.38825 20.8889 9.38673C21.2222 9.38673 21.5281 9.33007 21.8067 9.21673C22.0852 9.1034 22.3719 9.04673 22.6667 9.04673C23.1111 9.04673 23.4815 9.21673 23.7778 9.55673C24.0741 9.89673 24.2222 10.2934 24.2222 10.7467C24.2222 11.6156 23.8237 12.1732 23.0267 12.4195C22.2296 12.6658 21.517 12.7882 20.8889 12.7867C19.2222 12.7867 17.7874 12.1732 16.5844 10.9462C15.3815 9.71918 14.7793 8.25491 14.7778 6.5534V6.2134C14.7778 6.10007 14.7963 5.94896 14.8333 5.76007C11.7593 6.8934 9.25926 8.80118 7.33333 11.4834C5.40741 14.1656 4.44444 17.2445 4.44444 20.7201C4.44444 25.1023 5.96296 28.8423 9 31.9401C12.037 35.0378 15.7037 36.5867 20 36.5867Z" fill="#2660F4"/>
</svg>
