<svg width="45" height="29" viewBox="0 0 45 29" fill="none" xmlns="http://www.w3.org/2000/svg">
<path d="M35.1545 2.81211V25.309C35.1545 26.0548 34.8582 26.7701 34.3309 27.2975C33.8035 27.8249 33.0882 28.1211 32.3424 28.1211H29.5303C28.7845 28.1211 28.0692 27.8249 27.5418 27.2975C27.0144 26.7701 26.7182 26.0548 26.7182 25.309V15.4666H18.2818V25.309C18.2818 26.0548 17.9856 26.7701 17.4582 27.2975C16.9308 27.8249 16.2155 28.1211 15.4697 28.1211H12.6576C11.9118 28.1211 11.1965 27.8249 10.6691 27.2975C10.1418 26.7701 9.84549 26.0548 9.84549 25.309V2.81211C9.84549 2.06629 10.1418 1.35102 10.6691 0.823649C11.1965 0.296275 11.9118 0 12.6576 0H15.4697C16.2155 0 16.9308 0.296275 17.4582 0.823649C17.9856 1.35102 18.2818 2.06629 18.2818 2.81211V12.6545H26.7182V2.81211C26.7182 2.06629 27.0144 1.35102 27.5418 0.823649C28.0692 0.296275 28.7845 0 29.5303 0H32.3424C33.0882 0 33.8035 0.296275 34.3309 0.823649C34.8582 1.35102 35.1545 2.06629 35.1545 2.81211ZM6.33035 4.21817H5.62732C4.8815 4.21817 4.16623 4.51445 3.63885 5.04182C3.11148 5.56919 2.8152 6.28447 2.8152 7.03028V12.6545H1.4566C1.09325 12.6491 0.741348 12.7816 0.471681 13.0252C0.202015 13.2687 0.0345909 13.6054 0.00308936 13.9674C-0.00968101 14.1597 0.0172298 14.3527 0.0821503 14.5341C0.147071 14.7156 0.248614 14.8818 0.380474 15.0224C0.512333 15.163 0.671692 15.275 0.848652 15.3514C1.02561 15.4278 1.21639 15.467 1.40915 15.4666H2.8152V21.0909C2.8152 21.8367 3.11148 22.5519 3.63885 23.0793C4.16623 23.6067 4.8815 23.903 5.62732 23.903H6.33035C6.5168 23.903 6.69562 23.8289 6.82746 23.6971C6.9593 23.5652 7.03337 23.3864 7.03337 23.1999V4.9212C7.03337 4.73474 6.9593 4.55593 6.82746 4.42408C6.69562 4.29224 6.5168 4.21817 6.33035 4.21817ZM44.9969 13.9674C44.9654 13.606 44.7985 13.2699 44.5296 13.0264C44.2607 12.7829 43.9097 12.65 43.5469 12.6545H42.1848V7.03028C42.1848 6.28447 41.8885 5.56919 41.3611 5.04182C40.8338 4.51445 40.1185 4.21817 39.3727 4.21817H38.6697C38.4832 4.21817 38.3044 4.29224 38.1725 4.42408C38.0407 4.55593 37.9666 4.73474 37.9666 4.9212V23.1999C37.9666 23.3864 38.0407 23.5652 38.1725 23.6971C38.3044 23.8289 38.4832 23.903 38.6697 23.903H39.3727C40.1185 23.903 40.8338 23.6067 41.3611 23.0793C41.8885 22.5519 42.1848 21.8367 42.1848 21.0909V15.4666H43.5909C43.7836 15.467 43.9744 15.4278 44.1513 15.3514C44.3283 15.275 44.4877 15.163 44.6195 15.0224C44.7514 14.8818 44.8529 14.7156 44.9178 14.5341C44.9828 14.3527 45.0097 14.1597 44.9969 13.9674Z" fill="#5FA628"/>
</svg>
