<svg width="37" height="48" viewBox="0 0 37 48" fill="none" xmlns="http://www.w3.org/2000/svg">
<path d="M32.9869 31.746C33.6229 31.1456 34.1294 30.4228 34.4754 29.6216C34.8215 28.8204 35 27.9576 35 27.0856C35 26.2137 34.8215 25.3508 34.4754 24.5496C34.1294 23.7484 33.6229 23.0256 32.9869 22.4252C31.685 21.1968 29.9585 20.5119 28.1636 20.5119C26.3686 20.5119 24.6422 21.1968 23.3402 22.4252L18.5 27.237L13.6598 22.4252C12.3578 21.1968 10.6314 20.5119 8.83643 20.5119C7.0415 20.5119 5.31502 21.1968 4.01311 22.4252C3.3771 23.0256 2.87064 23.7484 2.52456 24.5496C2.17847 25.3508 2 26.2137 2 27.0856C2 27.9576 2.17847 28.8204 2.52456 29.6216C2.87064 30.4228 3.3771 31.1456 4.01311 31.746L18.5 45.7442L32.9869 31.746ZM18.5 15.4597C20.2954 15.4597 22.0173 14.7507 23.2868 13.4886C24.5564 12.2265 25.2696 10.5147 25.2696 8.72987C25.2696 6.945 24.5564 5.23323 23.2868 3.97113C22.0173 2.70904 20.2954 2 18.5 2C16.7046 2 14.9827 2.70904 13.7132 3.97113C12.4436 5.23323 11.7304 6.945 11.7304 8.72987C11.7304 10.5147 12.4436 12.2265 13.7132 13.4886C14.9827 14.7507 16.7046 15.4597 18.5 15.4597Z" stroke="#BF5214" stroke-width="4" stroke-linecap="round" stroke-linejoin="round"/>
</svg>
